<?xml version="1.0" encoding="UTF-8"?><svg id="Layer_1" xmlns="http://www.w3.org/2000/svg" viewBox="0 0 781.78 300"><defs><style>.cls-1{fill:#fff;}.cls-2{fill:#1e1e1e;}.cls-3{fill:#76b900;}</style></defs><g id="Geforce_Certified_1_Star"><g id="GeForce"><path class="cls-3" d="M269.12,64.89V235.1H68.04V64.89h201.09Zm373.02,0V235.11h17.82V64.89h-17.82Zm35.63,0V235.1h35.63V64.89h-35.63Z"/><path class="cls-2" d="M642.14,64.89V235.1H269.12V64.89h373.02Zm64.48,83.09l-5.53,5.37,1.31,7.6-6.82-3.6-6.82,3.6,1.31-7.6-5.53-5.37,7.63-1.1,3.4-6.92,3.4,6.92,7.63,1.1Zm-542.33,29.35v25.58h-7.22v-25.58s7.22,0,7.22,0Zm-64.06-.04h12.97c6.3,0,12.74,1.36,12.74,11.46v14.15s-7.06,0-7.06,0v-11.25c0-3.59-.47-5.56-1.61-6.77-.9-.96-2.23-1.43-4.1-1.43h-5.65s0,19.45,0,19.45h-7.29v-25.62m78.61,.04c5.76,0,9.61,.7,12.29,4.27,1.49,2,2.34,5.21,2.34,8.8,0,3.92-1.01,7.51-2.56,9.14-2.2,2.33-4.24,3.37-10.48,3.37h-11.72v-25.58h10.14Zm-2.97,20.12h3.11c4.51,0,7.42-2.02,7.42-7.28s-2.91-7.27-7.42-7.27h-3.11v14.55Zm-21.84-20.12l-8.32,25.58h-10.41l-8.25-25.58h7.8s5.78,20.27,5.78,20.27l6.03-20.27h7.37Zm42.8,0h7.23v25.58h-7.23v-25.58Zm29.9,0l10.17,25.56h-7.73l-1.51-4.52h-11.94l-1.6,4.52h-7.12l10.09-25.56h9.65Zm-9.48,16.64h8.89l-4.38-11.98-4.51,11.98Zm-69.74-76.57c1.1-.12,2.22-.2,3.39-.2,10.77,0,17.15,8.38,17.15,8.38l-8.75,7.38c-3.94-6.56-5.25-9.45-11.79-10.24v18.64c1.48,.5,3.13,.79,4.97,.79,12.77,0,24.68-16.54,24.68-16.54,0,0-11.03-14.97-27.84-14.44-.61,.02-1.22,.05-1.81,.09v6.15m64.45-20.3v68.04h-64.45v-7.97c1.36,.13,2.74,.22,4.18,.22,14.92,0,41.23-7.62,52.52-17.07-1.66-1.68-9.72-5.52-11.69-7.09-11.88,10.25-24.14,18.91-41.1,18.91-1.36,0-2.66-.09-3.92-.25v-5.67c1.47,.26,3.03,.41,4.7,.41,18.22,0,35.71-21.27,35.71-21.27,0,0-15.23-19.96-38.6-19.17-.61,.02-1.21,.06-1.81,.11v-9.18h64.45Zm-64.45,44.25c-8.84-2.97-11.72-13.29-11.72-13.29,0,0,5.13-6.13,11.69-5.34,0,0,.01,0,.02,0v-5.32c-12.51,1.35-20.04,9.7-20.04,9.7,0,0,4.35,16.3,20.04,19.1v-4.84m0,10.52v5.29c-28.28-2.67-38.36-31.82-38.36-31.82,0,0,17.8-17.41,38.36-19.06v4.98c-18.56,1.42-27.86,15.13-27.86,15.13,0,0,7.11,22.87,27.86,25.48Z"/><path class="cls-1" d="M320.54,143.46c-14.13,0-21.2-7.26-21.2-21.77v-2.48c0-4.63,.82-8.58,2.45-11.87,1.63-3.29,3.98-5.81,7.03-7.58,3.06-1.76,6.73-2.64,11.01-2.64h.57c4.29,0,7.9,.92,10.85,2.77,2.95,1.85,5.08,4.49,6.4,7.93l-8.53,2.99c-1.19-3.69-4.12-5.54-8.79-5.54h-.45c-3.65,0-6.44,1.18-8.37,3.53-1.93,2.36-2.9,5.78-2.9,10.28v2.87c0,4.58,.96,7.96,2.87,10.12,1.91,2.16,4.9,3.25,8.98,3.25h.38c1.66,0,3.22-.13,4.71-.38,1.48-.25,2.78-.64,3.88-1.15v-8.21h-9.55l1.08-7.77h17.38v20.5c-2.16,1.7-4.73,2.98-7.7,3.85-2.97,.87-6.18,1.3-9.61,1.3h-.51Zm25.91-.89v-44.56s29.6,0,29.6,0v7.89h-20.31v10.25h16.49l-1.08,7.89h-15.41v10.63h20.69v7.89h-29.99Zm38.13,0v-44.56s29.6,0,29.6,0v7.89h-20.31v11.4h16.36l-1.08,7.89h-15.28v17.38s-9.29,0-9.29,0Zm54.24,.89c-4.33,0-8.03-.89-11.11-2.67-3.08-1.78-5.43-4.31-7.07-7.58-1.64-3.27-2.45-7.15-2.45-11.65v-2.55c0-4.5,.82-8.38,2.45-11.65,1.63-3.27,3.99-5.79,7.07-7.58,3.08-1.78,6.78-2.67,11.11-2.67h.64c4.33,0,8.03,.89,11.11,2.67,3.08,1.78,5.43,4.31,7.07,7.58,1.63,3.27,2.45,7.15,2.45,11.65v2.55c0,4.5-.82,8.38-2.45,11.65-1.63,3.27-3.99,5.79-7.07,7.58-3.08,1.78-6.78,2.67-11.11,2.67h-.64Zm.06-8.15h.51c3.48,0,6.25-1.12,8.31-3.37,2.06-2.25,3.09-5.64,3.09-10.19v-2.93c0-4.54-1.03-7.94-3.09-10.19-2.06-2.25-4.83-3.37-8.31-3.37h-.51c-3.48,0-6.25,1.13-8.31,3.37-2.06,2.25-3.09,5.65-3.09,10.19v2.93c0,4.54,1.03,7.94,3.09,10.19,2.06,2.25,4.83,3.37,8.31,3.37Zm28.2,7.26v-44.56s16.87,0,16.87,0c5.18,0,9.28,1.21,12.32,3.63,3.03,2.42,4.55,5.77,4.55,10.06v1.21c0,3.01-.73,5.56-2.2,7.64-1.46,2.08-3.51,3.65-6.14,4.71l9.74,17.32h-10.12l-8.79-15.92h-6.94v15.92s-9.29,0-9.29,0Zm9.29-23.94h7.32c2.25,0,4.12-.42,5.6-1.27,1.49-.85,2.23-2.27,2.23-4.27v-1.59c0-1.91-.74-3.3-2.23-4.17-1.49-.87-3.35-1.31-5.6-1.31h-7.32v12.61Zm50.87,24.83c-6.62,0-11.65-1.93-15.09-5.79-3.44-3.86-5.16-9.25-5.16-16.17v-2.48c0-4.5,.78-8.38,2.36-11.65,1.57-3.27,3.86-5.79,6.88-7.58,3.01-1.78,6.68-2.67,11.01-2.67h.51c4.54,0,8.32,1,11.33,2.99,3.01,2,5.13,4.82,6.37,8.47l-8.66,3.06c-.59-2.21-1.69-3.82-3.28-4.84-1.59-1.02-3.51-1.53-5.76-1.53h-.38c-3.48,0-6.2,1.13-8.15,3.37-1.95,2.25-2.93,5.65-2.93,10.19v2.87c0,4.71,.94,8.16,2.83,10.35,1.89,2.19,4.64,3.28,8.24,3.28h.38c2.29,0,4.27-.5,5.92-1.5,1.66-1,2.82-2.6,3.5-4.81l8.47,3.31c-1.27,3.52-3.44,6.26-6.49,8.21s-6.85,2.93-11.4,2.93h-.51Zm25.08-.89v-44.56s29.6,0,29.6,0v7.89h-20.31v10.25h16.49l-1.08,7.89h-15.41v10.63h20.69v7.89s-29.98,0-29.98,0Zm-232.71,61.24c-6.62,0-11.65-1.93-15.09-5.79-3.44-3.86-5.16-9.25-5.16-16.17v-2.48c0-4.5,.78-8.38,2.36-11.65,1.57-3.27,3.86-5.79,6.88-7.58,3.01-1.78,6.68-2.67,11.01-2.67h.51c4.54,0,8.32,1,11.33,2.99,3.01,2,5.13,4.82,6.37,8.47l-8.66,3.06c-.59-2.21-1.69-3.82-3.28-4.84-1.59-1.02-3.51-1.53-5.76-1.53h-.38c-3.48,0-6.2,1.12-8.15,3.37-1.95,2.25-2.93,5.64-2.93,10.19v2.86c0,4.71,.94,8.16,2.83,10.34,1.89,2.19,4.64,3.28,8.24,3.28h.38c2.29,0,4.27-.5,5.92-1.5,1.66-1,2.82-2.6,3.5-4.81l8.47,3.31c-1.27,3.52-3.44,6.26-6.49,8.21-3.06,1.95-6.85,2.93-11.4,2.93h-.51Zm24.45-.89v-44.56h29.6v7.89h-20.31v10.25h16.49l-1.08,7.89h-15.41v10.63h20.69v7.89h-29.98Zm37.81,0v-44.56h16.87c5.18,0,9.28,1.21,12.32,3.63,3.03,2.42,4.55,5.77,4.55,10.06v1.21c0,3.01-.73,5.56-2.2,7.64-1.46,2.08-3.51,3.65-6.14,4.71l9.74,17.32h-10.12l-8.79-15.92h-6.94v15.92h-9.29Zm9.29-23.94h7.32c2.25,0,4.12-.42,5.6-1.27,1.49-.85,2.23-2.27,2.23-4.27v-1.59c0-1.91-.74-3.3-2.23-4.17-1.49-.87-3.35-1.31-5.6-1.31h-7.32v12.6Zm40.68,23.94v-36.54h-13.37v-8.02h36.03v8.02h-13.37v36.54h-9.29Zm28.26,0v-44.56h9.29v44.56h-9.29Zm19.23,0v-44.56h29.6v7.89h-20.31v11.4h16.36l-1.08,7.89h-15.28v17.38h-9.29Zm36.86,0v-44.56h9.29v44.56h-9.29Zm19.22,0v-44.56h29.6v7.89h-20.31v10.25h16.49l-1.08,7.89h-15.41v10.63h20.69v7.89h-29.98Zm37.81,0v-44.56h17.76c4.5,0,8.29,.87,11.36,2.61,3.08,1.74,5.41,4.18,7,7.32,1.59,3.14,2.39,6.83,2.39,11.08v2.48c0,6.54-1.78,11.68-5.35,15.44-3.56,3.76-8.7,5.63-15.41,5.63h-17.76Zm9.29-8.02h8.21c3.78,0,6.67-1.05,8.69-3.15s3.02-5.34,3.02-9.71v-2.86c0-4.2-1.01-7.38-3.02-9.55-2.02-2.16-4.91-3.25-8.69-3.25h-8.21v28.52Z"/></g></g></svg>